<svg xmlns="http://www.w3.org/2000/svg" width="60" height="31" viewBox="0 0 59 31" fill="none">
    <mask id="path-1-inside-1_2030_796" fill="white">
        <path
            d="M55.4735 29.5001C57.4211 29.5001 59.0218 27.9155 58.7896 25.9817C58.0056 19.454 55.0562 13.3369 50.3597 8.64041C44.8273 3.10809 37.3239 6.16258e-05 29.5 6.10352e-05C21.6761 6.04445e-05 14.1727 3.10809 8.64035 8.64041C3.94382 13.3369 0.994413 19.454 0.210448 25.9817C-0.0217905 27.9155 1.57888 29.5001 3.52653 29.5001V29.5001C5.47418 29.5001 7.02471 27.9115 7.32944 25.9878C8.0664 21.3357 10.255 17.0003 13.6276 13.6277C17.8372 9.41806 23.5467 7.05312 29.5 7.05312C35.4533 7.05312 41.1628 9.41806 45.3724 13.6277C48.745 17.0003 50.9336 21.3357 51.6706 25.9878C51.9753 27.9115 53.5258 29.5001 55.4735 29.5001V29.5001Z" />
    </mask>
    <path
        d="M55.4735 29.5001C57.4211 29.5001 59.0218 27.9155 58.7896 25.9817C58.0056 19.454 55.0562 13.3369 50.3597 8.64041C44.8273 3.10809 37.3239 6.16258e-05 29.5 6.10352e-05C21.6761 6.04445e-05 14.1727 3.10809 8.64035 8.64041C3.94382 13.3369 0.994413 19.454 0.210448 25.9817C-0.0217905 27.9155 1.57888 29.5001 3.52653 29.5001V29.5001C5.47418 29.5001 7.02471 27.9115 7.32944 25.9878C8.0664 21.3357 10.255 17.0003 13.6276 13.6277C17.8372 9.41806 23.5467 7.05312 29.5 7.05312C35.4533 7.05312 41.1628 9.41806 45.3724 13.6277C48.745 17.0003 50.9336 21.3357 51.6706 25.9878C51.9753 27.9115 53.5258 29.5001 55.4735 29.5001V29.5001Z"
        stroke="url(#paint0_linear_2030_796)" stroke-width="12.3"
        mask="url(#path-1-inside-1_2030_796)" />
    <defs>
        <linearGradient id="paint0_linear_2030_796" x1="-4" y1="12" x2="46.5" y2="42.5"
            gradientUnits="userSpaceOnUse">
            <stop offset="0.174669" stop-color="#FF6565" />
            <stop offset="0.637402" stop-color="#FFCD02" />
            <stop offset="1" stop-color="#20E301" />
        </linearGradient>
    </defs>
</svg>