<svg width="160" height="40" viewBox="0 0 160 40" fill="none" xmlns="http://www.w3.org/2000/svg">
<path d="M50.3384 14.5503C48.4557 14.5503 46.8719 15.2377 45.7364 16.433V14.9986H40.955V30H45.7364V23.0372C45.7364 20.1385 46.9616 18.8535 48.8442 18.8535C50.3683 18.8535 51.4142 20.0489 51.4142 21.812V30H56.1656V20.796C56.1656 17.0307 53.8347 14.5503 50.3384 14.5503ZM74.1304 22.4993C74.0407 17.5984 70.634 14.5503 66.3906 14.5503C62.0276 14.5503 58.4416 17.7777 58.4416 22.4993C58.4416 27.2507 62.0276 30.4482 66.3607 30.4482C69.7973 30.4482 72.5167 28.9242 73.8016 25.7566L69.5582 24.89C68.7514 26.3542 67.4664 26.6232 66.3607 26.6232C64.747 26.6232 63.5218 25.5175 63.1333 23.7245H74.1304V22.4993ZM66.3906 18.4352C67.7652 18.4352 68.9606 19.1823 69.4088 20.796H63.223C63.6712 19.2719 65.0458 18.4352 66.3906 18.4352ZM86.0596 14.5503C84.1172 14.5503 82.5633 15.148 81.3978 16.1939V8.48405H76.6165V30H81.3978V28.8047C82.5633 29.8506 84.1172 30.4482 86.0596 30.4482C90.0341 30.4482 93.381 27.2507 93.381 22.4993C93.381 17.7777 90.0341 14.5503 86.0596 14.5503ZM85.0735 26.3841C83.1311 26.3841 81.3978 24.8302 81.3978 22.4993C81.3978 20.1983 83.1311 18.6145 85.0735 18.6145C87.1653 18.6145 88.6893 20.1983 88.6893 22.4993C88.6893 24.8302 87.1653 26.3841 85.0735 26.3841ZM110.849 14.9986H106.068V21.9614C106.068 24.8601 104.843 26.1451 102.96 26.1451C101.436 26.1451 100.39 24.9497 100.39 23.1866V14.9986H95.6388V24.2026C95.6388 27.9679 97.9697 30.4482 101.466 30.4482C103.349 30.4482 104.933 29.7609 106.068 28.5656V30H110.849V14.9986ZM119.102 30V8.48405H114.321V30H119.102ZM138.358 14.9986H133.577V16.1939C132.411 15.148 130.857 14.5503 128.915 14.5503C124.94 14.5503 121.593 17.7777 121.593 22.4993C121.593 27.2507 124.94 30.4482 128.915 30.4482C130.857 30.4482 132.411 29.8506 133.577 28.8047V30H138.358V14.9986ZM129.901 26.3841C127.809 26.3841 126.285 24.8302 126.285 22.4993C126.285 20.1983 127.809 18.6145 129.901 18.6145C131.843 18.6145 133.577 20.1983 133.577 22.4993C133.577 24.8302 131.843 26.3841 129.901 26.3841Z" fill="white"/>
<path fill-rule="evenodd" clip-rule="evenodd" d="M19.9615 5.64669L19.3618 5.30047C16.4849 3.63952 12.8064 4.62365 11.1432 7.49921L-3.75268e-05 26.7651L7.77876 26.7651L16.7268 11.46L18.0505 9.19594L18.9179 7.9671C19.2795 7.45485 19.8674 7.15021 20.4944 7.15021C21.0097 7.15021 21.5035 7.35626 21.866 7.72246L22.172 8.03169L22.6083 8.47243L22.7436 8.60921L22.2355 7.79773C21.6956 6.93567 20.9528 6.21901 20.0719 5.71044L19.9615 5.64669Z" fill="url(#paint0_linear_1_13844)"/>
<path d="M21.866 7.72246C21.5035 7.35626 21.0097 7.15021 20.4944 7.15021C19.8674 7.15021 19.2795 7.45485 18.9179 7.9671L18.0505 9.19594L16.7268 11.46L24.308 24.4787L28.0385 18.1009L22.7436 8.60921L22.6083 8.47243L22.172 8.03169L21.866 7.72246Z" fill="url(#paint1_linear_1_13844)"/>
<path fill-rule="evenodd" clip-rule="evenodd" d="M18.4304 34.8202L19.0301 35.1664C21.9069 36.8274 25.5855 35.8433 27.2487 32.9677L38.3919 13.7018L30.6131 13.7018L21.665 29.0069L20.3413 31.271L19.4739 32.4998C19.1123 33.0121 18.5244 33.3167 17.8974 33.3167C17.3822 33.3167 16.8883 33.1106 16.5259 32.7444L16.2198 32.4352L15.7836 31.9945L15.6482 31.8577L16.1564 32.6692C16.6962 33.5312 17.4391 34.2479 18.32 34.7565L18.4304 34.8202Z" fill="url(#paint2_linear_1_13844)"/>
<path d="M16.5259 32.7444C16.8883 33.1106 17.3822 33.3167 17.8974 33.3167C18.5244 33.3167 19.1123 33.0121 19.4739 32.4998L20.3413 31.271L21.665 29.0069L14.0838 15.9882L10.3534 22.366L15.6482 31.8577L15.7836 31.9945L16.2198 32.4352L16.5259 32.7444Z" fill="url(#paint3_linear_1_13844)"/>
<path d="M134.207 7.96861V9.75189H136.818C136.5 10.6945 135.685 11.2804 134.564 11.2804C133.137 11.2804 132.054 10.185 132.054 8.73287C132.054 7.29352 133.112 6.19807 134.5 6.19807C135.328 6.19807 136.143 6.45283 136.64 7.42089L138.665 6.83496C138.067 5.16632 136.398 4.27468 134.5 4.27468C131.94 4.27468 129.94 6.23629 129.94 8.73287C129.94 11.2422 131.953 13.1911 134.538 13.1911C137.111 13.1911 138.958 11.3314 138.958 8.74561C138.958 8.52907 138.946 8.27432 138.907 7.96861H134.207ZM146.932 6.29998V4.46575H139.315V6.29998H142.079V13H144.168V6.29998H146.932Z" fill="url(#paint4_linear_1_13844)"/>
<path fill-rule="evenodd" clip-rule="evenodd" d="M147.837 6.37391L147.837 6.15319C147.837 5.0943 148.695 4.23567 149.753 4.23484L156.848 4.22931L155.608 6.37668L149.957 6.4075L149.121 6.41206L148.643 6.45566C148.444 6.47383 148.267 6.58758 148.167 6.76067C148.085 6.9029 148.063 7.07207 148.106 7.23049L148.143 7.36427L148.195 7.55493L148.211 7.6141L148.068 7.34449C147.916 7.05806 147.837 6.73877 147.837 6.41455L147.837 6.37391Z" fill="url(#paint5_linear_1_13844)"/>
<path d="M148.106 7.23049C148.063 7.07207 148.085 6.9029 148.167 6.76067C148.267 6.58758 148.444 6.47383 148.643 6.45566L149.121 6.41206L149.957 6.4075L152.342 10.5752L149.987 10.5885L148.211 7.6141L148.195 7.55493L148.143 7.36427L148.106 7.23049Z" fill="url(#paint6_linear_1_13844)"/>
<path fill-rule="evenodd" clip-rule="evenodd" d="M156.134 10.6009L156.134 10.8216C156.134 11.8805 155.276 12.7392 154.217 12.74L147.123 12.7455L148.363 10.5981L154.014 10.5673L154.85 10.5628L155.327 10.5192C155.526 10.501 155.704 10.3872 155.804 10.2142C155.886 10.0719 155.908 9.90275 155.865 9.74433L155.828 9.61056L155.776 9.41989L155.76 9.36072L155.903 9.63034C156.055 9.91676 156.134 10.2361 156.134 10.5603L156.134 10.6009Z" fill="url(#paint7_linear_1_13844)"/>
<path d="M155.865 9.74433C155.908 9.90275 155.886 10.0719 155.804 10.2142C155.704 10.3872 155.526 10.501 155.327 10.5192L154.85 10.5628L154.014 10.5673L151.628 6.39958L153.983 6.38628L155.76 9.36072L155.776 9.41989L155.828 9.61056L155.865 9.74433Z" fill="url(#paint8_linear_1_13844)"/>
<defs>
<linearGradient id="paint0_linear_1_13844" x1="21.4199" y1="5.34515" x2="-3.56446e-05" y2="26.7651" gradientUnits="userSpaceOnUse">
<stop stop-color="#2CACAD"/>
<stop offset="1" stop-color="#54F0C1"/>
</linearGradient>
<linearGradient id="paint1_linear_1_13844" x1="19.1335" y1="7.87223" x2="28.0385" y2="20.989" gradientUnits="userSpaceOnUse">
<stop stop-color="#14918E"/>
<stop offset="1" stop-color="#14918E" stop-opacity="0"/>
</linearGradient>
<linearGradient id="paint2_linear_1_13844" x1="16.9719" y1="35.1218" x2="38.3919" y2="13.7018" gradientUnits="userSpaceOnUse">
<stop stop-color="#2CACAD"/>
<stop offset="1" stop-color="#6ADAFF"/>
</linearGradient>
<linearGradient id="paint3_linear_1_13844" x1="19.2583" y1="32.5947" x2="10.3534" y2="19.4779" gradientUnits="userSpaceOnUse">
<stop stop-color="#14918E"/>
<stop offset="1" stop-color="#14918E" stop-opacity="0"/>
</linearGradient>
<linearGradient id="paint4_linear_1_13844" x1="139.122" y1="3.89157" x2="139.122" y2="12.494" gradientUnits="userSpaceOnUse">
<stop stop-color="#5DE8C0"/>
<stop offset="1" stop-color="#68DAFF"/>
</linearGradient>
<linearGradient id="paint5_linear_1_13844" x1="147.521" y1="6.72847" x2="156.848" y2="4.22931" gradientUnits="userSpaceOnUse">
<stop stop-color="#2CACAD"/>
<stop offset="1" stop-color="#54F0C1"/>
</linearGradient>
<linearGradient id="paint6_linear_1_13844" x1="148.583" y1="6.50006" x2="150.785" y2="11.0488" gradientUnits="userSpaceOnUse">
<stop stop-color="#14918E"/>
<stop offset="1" stop-color="#14918E" stop-opacity="0"/>
</linearGradient>
<linearGradient id="paint7_linear_1_13844" x1="156.45" y1="10.2464" x2="147.123" y2="12.7455" gradientUnits="userSpaceOnUse">
<stop stop-color="#2CACAD"/>
<stop offset="1" stop-color="#6ADAFF"/>
</linearGradient>
<linearGradient id="paint8_linear_1_13844" x1="155.388" y1="10.4748" x2="153.186" y2="5.92598" gradientUnits="userSpaceOnUse">
<stop stop-color="#14918E"/>
<stop offset="1" stop-color="#14918E" stop-opacity="0"/>
</linearGradient>
</defs>
</svg>
