<svg width="40" height="40" viewBox="0 0 40 40" fill="none" xmlns="http://www.w3.org/2000/svg">
<rect width="40" height="40" rx="8" fill="#F29E61" fill-opacity="0.2"/>
<path opacity="0.4" d="M18.196 13.7606L18.196 13.7606L18.2003 13.7627C18.4266 13.8735 18.7039 14.1202 18.9282 14.4752C19.1533 14.8315 19.25 15.1776 19.25 15.41V28.75H12.08C11.5869 28.75 11.22 28.3564 11.22 27.93V13.09C11.22 12.0832 11.5835 11.6078 11.8973 11.4173C12.2179 11.2228 12.8333 11.1146 13.7683 11.5717C13.769 11.572 13.7697 11.5724 13.7704 11.5727L18.196 13.7606Z" fill="#F29E61" stroke="#F29E61" stroke-width="2.5"/>
<mask id="path-3-inside-1_1_13904" fill="white">
<path d="M16.97 17.75H13.5C13.09 17.75 12.75 17.41 12.75 17C12.75 16.59 13.09 16.25 13.5 16.25H16.97C17.38 16.25 17.72 16.59 17.72 17C17.72 17.41 17.39 17.75 16.97 17.75Z"/>
</mask>
<path d="M16.97 17.75H13.5C13.09 17.75 12.75 17.41 12.75 17C12.75 16.59 13.09 16.25 13.5 16.25H16.97C17.38 16.25 17.72 16.59 17.72 17C17.72 17.41 17.39 17.75 16.97 17.75Z" fill="#F29E61"/>
<path d="M16.97 15.25H13.5V20.25H16.97V15.25ZM13.5 15.25C14.4707 15.25 15.25 16.0293 15.25 17H10.25C10.25 18.7907 11.7093 20.25 13.5 20.25V15.25ZM15.25 17C15.25 17.9707 14.4707 18.75 13.5 18.75V13.75C11.7093 13.75 10.25 15.2093 10.25 17H15.25ZM13.5 18.75H16.97V13.75H13.5V18.75ZM16.97 18.75C15.9993 18.75 15.22 17.9707 15.22 17H20.22C20.22 15.2093 18.7607 13.75 16.97 13.75V18.75ZM15.22 17C15.22 16.0511 15.9876 15.25 16.97 15.25V20.25C18.7924 20.25 20.22 18.7689 20.22 17H15.22Z" fill="#F29E61" mask="url(#path-3-inside-1_1_13904)"/>
<path d="M16.97 21.75H13.5C13.09 21.75 12.75 21.41 12.75 21C12.75 20.59 13.09 20.25 13.5 20.25H16.97C17.38 20.25 17.72 20.59 17.72 21C17.72 21.41 17.39 21.75 16.97 21.75Z" fill="#F29E61"/>
<path opacity="0.6" d="M30 23.05V27.5C30 28.88 28.88 30 27.5 30H20.5V18.42L20.97 18.52L25.01 19.42L25.49 19.53L27.53 19.99C28.02 20.09 28.47 20.26 28.86 20.51C28.86 20.52 28.87 20.52 28.87 20.52C28.97 20.59 29.07 20.67 29.16 20.76C29.62 21.22 29.92 21.89 29.99 22.87C29.99 22.93 30 22.99 30 23.05Z" fill="#F29E61"/>
<path d="M20.5 18.42V24.42C20.96 25.03 21.68 25.42 22.5 25.42C23.89 25.42 25.01 24.3 25.01 22.92V19.43L20.97 18.53L20.5 18.42Z" fill="#F29E61"/>
<path d="M29.9899 22.87C29.9199 21.89 29.6199 21.22 29.1599 20.76C29.0699 20.67 28.9699 20.59 28.8699 20.52C28.8699 20.52 28.8599 20.52 28.8599 20.51C28.4699 20.26 28.0199 20.09 27.5299 19.99L25.4899 19.53L25.0099 19.42V22.92C25.0099 24.29 26.1199 25.42 27.5099 25.42C28.8499 25.42 29.9199 24.37 29.9999 23.06V23.05C29.9999 22.99 29.9899 22.93 29.9899 22.87Z" fill="#F29E61"/>
</svg>
