<svg width="40" height="40" viewBox="0 0 40 40" fill="none" xmlns="http://www.w3.org/2000/svg">
<rect width="40" height="40" rx="8" fill="#96E5BE" fill-opacity="0.2"/>
<path opacity="0.4" d="M25.9999 25.61H25.2399C24.1166 25.61 23.0378 26.0458 22.2387 26.8433C22.2378 26.8443 22.2369 26.8452 22.236 26.8461L20.5317 28.5304C20.5315 28.5306 20.5314 28.5307 20.5313 28.5308C20.5312 28.5309 20.5312 28.5309 20.5312 28.5309C20.2381 28.8197 19.7516 28.8197 19.4586 28.5309C19.4585 28.5309 19.4585 28.5309 19.4585 28.5308C19.4583 28.5307 19.4582 28.5306 19.4581 28.5304L17.7538 26.8461C17.7528 26.8452 17.7519 26.8443 17.751 26.8433C16.9504 26.0443 15.8609 25.61 14.7499 25.61H13.9999C13.0193 25.61 12.2499 24.8288 12.2499 23.89V12.98C12.2499 12.0412 13.0193 11.26 13.9999 11.26H25.9999C26.9805 11.26 27.7499 12.0412 27.7499 12.98V23.89C27.7499 24.8215 26.9777 25.61 25.9999 25.61Z" fill="#60BF98" stroke="#60BF98" stroke-width="2.5"/>
<path d="M19.9998 18.41C21.2866 18.41 22.3298 17.3668 22.3298 16.08C22.3298 14.7932 21.2866 13.75 19.9998 13.75C18.713 13.75 17.6698 14.7932 17.6698 16.08C17.6698 17.3668 18.713 18.41 19.9998 18.41Z" fill="#60BF98"/>
<path d="M22.6799 23.06C23.4899 23.06 23.9599 22.16 23.5099 21.49C22.8299 20.48 21.5099 19.8 19.9999 19.8C18.4899 19.8 17.1699 20.48 16.4899 21.49C16.0399 22.16 16.5099 23.06 17.3199 23.06H22.6799Z" fill="#60BF98"/>
</svg>
