<svg width="40" height="40" viewBox="0 0 40 40" fill="none" xmlns="http://www.w3.org/2000/svg">
<rect width="40" height="40" rx="8" fill="#92BAFB" fill-opacity="0.2"/>
<path opacity="0.4" d="M13.1501 14.94C13.1501 14.8485 13.1977 14.7856 13.2459 14.7589L15.2124 13.7007L15.2124 13.7007L15.2153 13.6992L16.7825 12.8507L16.7853 12.8492L19.5325 11.3707L19.5325 11.3707L19.5387 11.3674C19.8256 11.2109 20.1747 11.2109 20.4616 11.3674L20.4616 11.3674L20.4671 11.3704L26.7533 14.7582C26.7536 14.7584 26.7539 14.7586 26.7542 14.7588C26.8024 14.7854 26.8502 14.8484 26.8502 14.94C26.8502 15.0316 26.8023 15.0947 26.7539 15.1213C26.7537 15.1214 26.7535 15.1215 26.7533 15.1217L25.0187 16.0587L23.5415 16.8473L23.5415 16.8473L23.5356 16.8504L20.4656 18.5104L20.4656 18.5104L20.4616 18.5126C20.3172 18.5913 20.1633 18.63 20.0002 18.63C19.837 18.63 19.6831 18.5913 19.5387 18.5126L19.5332 18.5096L13.247 15.1217C13.2467 15.1215 13.2464 15.1213 13.2461 15.1212C13.1978 15.0944 13.1501 15.0315 13.1501 14.94Z" fill="#4478FF" stroke="#4478FF" stroke-width="2.5"/>
<path opacity="0.4" d="M17.9002 20.79L12.0502 17.86C11.6002 17.63 11.0802 17.66 10.6502 17.92C10.2202 18.18 9.97021 18.64 9.97021 19.14V24.67C9.97021 25.63 10.5002 26.49 11.3602 26.92L17.2102 29.8401C17.4102 29.9401 17.6302 29.99 17.8502 29.99C18.1102 29.99 18.3702 29.92 18.6002 29.77C19.0302 29.51 19.2802 29.05 19.2802 28.55V23.02C19.2902 22.08 18.7602 21.22 17.9002 20.79Z" fill="#4478FF"/>
<path opacity="0.4" d="M30.03 19.15V24.68C30.03 25.63 29.5 26.49 28.64 26.92L22.79 29.85C22.59 29.95 22.37 30 22.15 30C21.89 30 21.63 29.93 21.39 29.78C20.97 29.52 20.71 29.06 20.71 28.56V23.04C20.71 22.08 21.24 21.22 22.1 20.79L24.25 19.72L25.75 18.97L27.95 17.87C28.4 17.64 28.92 17.66 29.35 17.93C29.77 18.19 30.03 18.65 30.03 19.15Z" fill="#4478FF"/>
<path d="M25.6099 17.16L24.1299 17.95L14.6199 12.6L16.1899 11.75L25.3699 16.93C25.4699 16.99 25.5499 17.07 25.6099 17.16Z" fill="#4478FF"/>
<path d="M25.75 18.97V21.24C25.75 21.65 25.41 21.99 25 21.99C24.59 21.99 24.25 21.65 24.25 21.24V19.72L25.75 18.97Z" fill="#4478FF"/>
</svg>
