<svg width="16" height="16" viewBox="0 0 16 16" fill="none" xmlns="http://www.w3.org/2000/svg">
<g id="vuesax/bulk/calendar">
<g id="calendar">
<path id="Vector" d="M10.6667 2.82917L11.1206 2.8712C11.9273 2.9459 12.4721 3.21675 12.831 3.59783C13.1609 3.94797 13.3743 4.43413 13.4551 5.05999H2.54488C2.62573 4.43413 2.83912 3.94797 3.16894 3.59783C3.52792 3.21675 4.07264 2.9459 4.87942 2.8712L5.33332 2.82917L5.33332 2.83333H5.83332H10.1667H10.6667V2.82917Z" fill="#E0E1E5" stroke="#92969F"/>
<path id="Vector_2" opacity="0.4" d="M13.3333 7.06C13.4239 7.06 13.5 7.13614 13.5 7.22666V11.3333C13.5 12.2567 13.2691 12.9498 12.8419 13.4098C12.421 13.8631 11.738 14.1667 10.6667 14.1667H5.33333C4.26197 14.1667 3.57899 13.8631 3.15806 13.4098C2.73091 12.9498 2.5 12.2567 2.5 11.3333V7.22666C2.5 7.13614 2.57614 7.06 2.66667 7.06H13.3333Z" fill="#E0E1E5" stroke="#92969F"/>
<g id="Group">
<path id="Vector_3" d="M5.72155 9.17891L5.73095 9.18297L5.74051 9.18665C5.76306 9.19532 5.77542 9.20376 5.78248 9.20987C5.81678 9.24909 5.83333 9.29818 5.83333 9.33332C5.83333 9.36724 5.81791 9.41415 5.786 9.45265C5.7475 9.48456 5.70058 9.49999 5.66667 9.49999C5.63275 9.49999 5.58583 9.48456 5.54733 9.45265C5.51542 9.41415 5.5 9.36724 5.5 9.33332C5.5 9.29798 5.51674 9.24854 5.55142 9.20921C5.59642 9.16812 5.6686 9.15601 5.72155 9.17891Z" fill="#E0E1E5" stroke="#92969F"/>
</g>
<g id="Group_2">
<path id="Vector_4" d="M7.99992 9.99999C7.82659 9.99999 7.65325 9.92665 7.52659 9.80665C7.40659 9.67998 7.33325 9.50665 7.33325 9.33332C7.33325 9.15999 7.40659 8.98666 7.52659 8.85999C7.58659 8.79999 7.65992 8.75331 7.74658 8.71998C7.99325 8.61331 8.28658 8.67333 8.47325 8.85999C8.59325 8.98666 8.66659 9.15999 8.66659 9.33332C8.66659 9.50665 8.59325 9.67998 8.47325 9.80665C8.43992 9.83331 8.40659 9.85998 8.37325 9.88664C8.33325 9.91331 8.29325 9.93333 8.25325 9.94666C8.21325 9.96666 8.17325 9.97999 8.13325 9.98666C8.08659 9.99333 8.04659 9.99999 7.99992 9.99999Z" fill="#E0E1E5"/>
</g>
<g id="Group_3">
<path id="Vector_5" d="M10.2596 9.18666L10.2715 9.18208L10.2831 9.17689C10.3035 9.16787 10.3311 9.16275 10.3687 9.17028L10.3697 9.17048L10.3949 9.18309L10.4211 9.19183L10.4594 9.2224C10.4868 9.25915 10.5001 9.30184 10.5001 9.33333C10.5001 9.36482 10.4868 9.40751 10.4594 9.44426L10.4444 9.45622L10.4211 9.47483L10.3949 9.48357L10.3718 9.49512C10.36 9.49676 10.3508 9.49796 10.3424 9.49889C10.3363 9.49957 10.3327 9.49986 10.3311 9.49997C10.2974 9.49929 10.2517 9.48385 10.2141 9.45266C10.1822 9.41416 10.1667 9.36725 10.1667 9.33333C10.1667 9.30015 10.1815 9.25454 10.212 9.21654C10.2223 9.20808 10.2298 9.20267 10.2354 9.19897C10.2431 9.19398 10.2503 9.19024 10.2596 9.18666Z" fill="#E0E1E5" stroke="#92969F"/>
</g>
<g id="Group_4">
<path id="Vector_6" d="M5.60564 11.8185L5.60571 11.8183L5.59282 11.8133C5.58352 11.8098 5.57637 11.806 5.5687 11.801C5.56302 11.7973 5.55551 11.7919 5.54526 11.7835C5.51476 11.7455 5.5 11.6999 5.5 11.6667C5.5 11.6335 5.51476 11.5879 5.54526 11.5499C5.55551 11.5414 5.56302 11.536 5.5687 11.5323C5.57637 11.5273 5.58352 11.5236 5.59282 11.52L5.60474 11.5154L5.6164 11.5102C5.63671 11.5012 5.66431 11.4961 5.70194 11.5036L5.70296 11.5038L5.72818 11.5164L5.75439 11.5252L5.7926 11.5557C5.82004 11.5925 5.83333 11.6352 5.83333 11.6667C5.83333 11.6991 5.81924 11.7434 5.79013 11.7809C5.78955 11.7814 5.78899 11.7818 5.78844 11.7823L5.77527 11.7937L5.76618 11.8015C5.76601 11.8017 5.76583 11.8018 5.76567 11.802L5.76265 11.804C5.76041 11.8055 5.75877 11.8065 5.75772 11.8071L5.72818 11.8169L5.70487 11.8286L5.69602 11.8298L5.67606 11.8325C5.66736 11.8335 5.66562 11.8333 5.66667 11.8333C5.65582 11.8333 5.63446 11.8305 5.60564 11.8185Z" fill="#E0E1E5" stroke="#92969F"/>
</g>
<g id="Group_5">
<path id="Vector_7" d="M7.99992 11.8333C7.96601 11.8333 7.91908 11.8179 7.88059 11.786C7.84868 11.7475 7.83325 11.7006 7.83325 11.6667C7.83325 11.6316 7.84977 11.5825 7.88398 11.5433C7.90154 11.5283 7.94056 11.5083 7.99992 11.5083C8.05928 11.5083 8.0983 11.5283 8.11586 11.5433C8.15007 11.5825 8.16659 11.6316 8.16659 11.6667C8.16659 11.7006 8.15116 11.7475 8.11925 11.786C8.08075 11.8179 8.03383 11.8333 7.99992 11.8333Z" fill="#E0E1E5" stroke="#92969F"/>
</g>
<g id="Group_6">
<path id="Vector_8" d="M10.3334 11.8333C10.2995 11.8333 10.2526 11.8179 10.2141 11.786C10.1822 11.7475 10.1667 11.7006 10.1667 11.6667C10.1667 11.6316 10.1833 11.5825 10.2175 11.5433C10.235 11.5283 10.2741 11.5083 10.3334 11.5083C10.3928 11.5083 10.4318 11.5283 10.4494 11.5433C10.4836 11.5825 10.5001 11.6316 10.5001 11.6667C10.5001 11.7006 10.4847 11.7475 10.4527 11.786C10.4142 11.8179 10.3673 11.8333 10.3334 11.8333Z" fill="#E0E1E5" stroke="#92969F"/>
</g>
</g>
</g>
</svg>
